# AST/ASF file generated using VICON BodyLanguage
# -----------------------------------------------
:version 1.10
:name VICON
:units
  mass 1.0
  length 0.45
  angle deg
:documentation
   .ast/.asf automatically generated from VICON data using
   VICON BodyBuilder and BodyLanguage model FoxedUp or BRILLIANT.MOD
:root
   order TX TY TZ RX RY RZ
   axis XYZ
   position 0 0 0  
   orientation 0 -0 0 
:bonedata
  begin
     id 1 
     name lhipjoint
     direction 0.432694 -0.693742 0.575759 
     length 2.19277 
     axis 0 -0 0  XYZ
  end
  begin
     id 2 
     name lfemur
     direction 0.34202 -0.939693 0  
     length 6.69022  
     axis 0 -0 20  XYZ
    dof rx ry rz
    limits (-160.0 20.0)
           (-70.0 70.0)
           (-60.0 70.0)
  end
  begin
     id 3 
     name ltibia
     direction 0.34202 -0.939693 0   
     length 6.50337   
     axis 0 -0 20   XYZ
    dof rx
    limits (-10.0 170.0)
  end
  begin
     id 4 
     name lfoot
     direction 0.158999 -0.435969 0.885805   
     length 2.70564   
     axis -90 -1.13533e-015 20   XYZ
    dof rx rz
    limits (-45.0 90.0)
           (-70.0 20.0)
  end
  begin
     id 5 
     name ltoes
     direction -0.00592919 0.00964381 0.999936   
     length 1.29929   
     axis -90 -1.13533e-015 20   XYZ
    dof rx
    limits (-90.0 20.0)
  end
  begin
     id 6 
     name rhipjoint
     direction -0.414359 -0.700339 0.581234   
     length 2.17212  
     axis 0 -0 0  XYZ 
  end
  begin
     id 7 
     name rfemur
     direction -0.34202 -0.939693 0   
     length 7.17659   
     axis 0 -0 -20   XYZ
    dof rx ry rz
    limits (-160.0 20.0)
           (-70.0 70.0)
           (-70.0 60.0)
  end
  begin
     id 8 
     name rtibia
     direction -0.34202 -0.939693 0   
     length 6.36669   
     axis 0 -0 -20   XYZ
    dof rx
    limits (-10.0 170.0)
 end
 begin
     id 9 
     name rfoot
     direction -0.137064 -0.37658 0.916188   
     length 2.22351  
     axis -90 1.13533e-015 -20   XYZ
    dof rx rz
    limits (-45.0 90.0)
           (-20.0 70.0)
  end
  begin
     id 10 
     name rtoes
     direction -0.000784077 -0.00289101 0.999996   
     length 1.09522   
     axis -90 1.13533e-015 -20   XYZ
    dof rx
    limits (-90.0 20.0)
  end
  begin
     id 11 
     name lowerback
     direction -0.0176242 0.984912 -0.172157   
     length 1.65301   
     axis 0 -0 0   XYZ
    dof rx ry rz
    limits (-20.0 45.0)
           (-30.0 30.0)
           (-30.0 30.0)
  end
  begin
     id 12 
     name upperback
     direction -0.00218128 0.998776 -0.0494072   
     length 1.67776   
     axis 0 -0 0   XYZ
    dof rx ry rz
    limits (-20.0 45.0)
           (-30.0 30.0)
           (-30.0 30.0)
  end
  begin
     id 13 
     name thorax
     direction 0.00544186 0.999658 0.0255711   
     length 1.72293   
     axis 0 -0 0   XYZ
    dof rx ry rz
    limits (-20.0 45.0)
           (-30.0 30.0)
           (-30.0 30.0)
  end
  begin
     id 14 
     name lowerneck
     direction -0.105325 0.983841 0.144785   
     length 2.14226   
     axis 0 -0 0   XYZ
    dof rx ry rz
    limits (-20.0 45.0)
           (-30.0 30.0)
           (-30.0 30.0)
  end
  begin
     id 15 
     name upperneck
     direction 0.0547957 0.988053 -0.144041   
     length 2.17508   
     axis 0 -0 0   XYZ
    dof rx ry rz
    limits (-20.0 45.0)
           (-30.0 30.0)
           (-30.0 30.0)
  end
  begin
     id 16
     name head
     direction 0.0247488 0.997534 -0.0656813  
     length 2.20048  
     axis 0 -0 0   XYZ
    dof rx ry rz
    limits (-20.0 45.0)
           (-30.0 30.0)
           (-30.0 30.0)
  end
  begin
     id 17 
     name lclavicle
     direction 0.820559 0.567247 -0.0701026  
     length 4.09615  
     axis 0 -0 0   XYZ
    dof ry rz
    limits (-20.0 10.0)
           (0.0 20.0)
  end
  begin
     id 18 
     name lhumerus
     direction 0.999977 -0.0067566 -9.96392e-005   
     length 4.59333   
     axis -180 -30 -90   XYZ
    dof rx ry rz
    limits (-60.0 90.0)
           (-90.0 90.0)
           (-90.0 90.0)
  end
  begin
     id 19
     name lradius
     direction 1 -4.48982e-011 -2.53425e-027   
     length 2.81151   
     axis -180 -30 -90   XYZ
    dof rx
    limits (-10.0 170.0)
  end
  begin
     id 20
     name lwrist
     direction 1 -4.48939e-011 -7.39254e-028   
     length 1.40576   
     axis 2.56395e-016 90 90   XYZ
    dof ry
    limits (-180.0 0.0)
 end
  begin
     id 21 
     name lhand
     direction 1 -4.48939e-011 -1.47851e-027   
     length 0.895651   
     axis 9.43423e-016 90 90   XYZ
    dof rx rz
    limits (-90.0 90.0)
           (-45.0 45.0)
  end
  begin
     id 22 
     name lfingers
     direction 1 -4.48978e-011 -2.95702e-027   
     length 0.722097   
     axis 1.88685e-015 90 90   XYZ
    dof rx
    limits (0.0 90.0)
  end
  begin
     id 23
     name lthumb
     direction 0.707107 -6.34931e-011 0.707107   
     length 1.03679   
     axis -90 45 -9.86935e-015   XYZ
    dof rx rz
    limits (-45.0 45.0)
           (-45.0 45.0)
  end
  begin
     id 24 
     name rclavicle
     direction -0.831414 0.553102 -0.0531864   
     length 4.24872  
     axis 0 -0 0   XYZ 
    dof ry rz
    limits (-10.0 20.0)
           (-20.0 0.0)
  end
  begin
     id 25 
     name rhumerus
     direction -0.999916 -0.000939607 0.0129331  
     length 4.74834   
     axis -180 30 90   XYZ
    dof rx ry rz
    limits (-90.0 60.0)
           (-90.0 90.0)
           (-90.0 90.0)
  end
  begin
     id 26 
     name rradius
     direction -1 -4.48956e-011 -1.31752e-027   
     length 2.79907   
     axis -180 30 90   XYZ
    dof rx
    limits (-10.0 170.0)
  end
  begin
     id 27 
     name rwrist
     direction -1 -4.4897e-011 -7.39254e-028   
     length 1.39954   
     axis 2.56395e-016 -90 -90   XYZ
    dof ry
    limits (-180.0 0.0)
  end
  begin
     id 28
     name rhand
     direction -0.999997 -0.00250697 0.000800838   
     length 0.953304   
     axis 9.43423e-016 -90 -90   XYZ
    dof rx rz
    limits (-90.0 90.0)
           (-45.0 45.0)
  end
  begin
     id 29
     name rfingers
     direction -1 -4.48954e-011 -2.95702e-027   
     length 0.763342   
     axis 1.88685e-015 -90 -90   XYZ
    dof rx
    limits (0.0 90.0)
  end
  begin
     id 30
     name rthumb
     direction -0.709701 -0.00217037 0.7045   
     length 1.10115   
     axis -90 -45 9.86935e-015   XYZ
    dof rx rz
    limits (-45.0 45.0)
           (-45.0 45.0)
  end
:hierarchy
  begin
    root lhipjoint rhipjoint lowerback
    lhipjoint lfemur
    lfemur ltibia
    ltibia lfoot
    lfoot ltoes
    rhipjoint rfemur
    rfemur rtibia
    rtibia rfoot
    rfoot rtoes
    lowerback upperback
    upperback thorax
    thorax lowerneck lclavicle rclavicle
    lowerneck upperneck
    upperneck head
    lclavicle lhumerus
    lhumerus lradius
    lradius lwrist
    lwrist lhand lthumb
    lhand lfingers
    rclavicle rhumerus
    rhumerus rradius
    rradius rwrist
    rwrist rhand rthumb
    rhand rfingers
  end

#!OML:ASF G:\ViconDB\ViconDB\414\test\team2\shane.ASF
:FULLY-SPECIFIED
:DEGREES
49
root 1.91718 16.7846 -18.6995 -9.11926 -1.99822 -3.419
lowerback 11.6074 -1.3192 -0.825845
upperback 3.74819 -1.78279 1.91767
thorax -2.49998 -0.898708 2.69944
lowerneck -19.6989 -2.0235 -7.27783
upperneck 20.0814 -2.632 8.43518
head 9.83613 -0.804536 3.81478
rclavicle -2.99233e-014 2.10712e-014
rhumerus -38.8301 17.4396 -90.8677
rradius 42.2396
rwrist 30.3841
rhand -29.7743 -9.45466
rfingers 7.12502
rthumb -3.09945 -39.4119
lclavicle -2.99233e-014 2.10712e-014
lhumerus -22.6934 -19.9231 97.1758
lradius 42.9349
lwrist -14.0917
lhand -47.3784 9.217
lfingers 7.12502
lthumb -20.071 38.2003
rfemur -5.88263 -13.3381 13.5693
rtibia 62.5283
rfoot -15.2151 2.23332
rtoes -15.0565
lfemur 2.74373 13.3601 -12.6502
ltibia 30.454
lfoot -29.7135 -14.9567
ltoes -6.58913
50
root 1.92973 16.7857 -18.5242 -9.23307 -1.66545 -3.48694
lowerback 11.7591 -1.54565 -1.21649
upperback 3.65885 -2.11927 2.14055
thorax -2.63442 -1.06531 3.20507
lowerneck -19.4735 -1.86049 -7.34998
upperneck 20.1224 -2.36545 8.29672
head 9.78326 -0.707383 3.81444
rclavicle 8.85834e-015 -7.35503e-015
rhumerus -40.1486 15.5488 -89.3354
rradius 40.1081
rwrist 31.8785
rhand -29.6292 -9.81991
rfingers 7.12502
rthumb -2.95941 -39.7791
lclavicle 8.85834e-015 -7.35503e-015
lhumerus -21.4091 -20.3377 97.0841
lradius 45.1449
lwrist -14.0899
lhand -47.5313 8.87493
lfingers 7.12502
lthumb -20.218 37.8427
rfemur -7.36004 -13.5735 14.2498
rtibia 61.6804
rfoot -16.2283 2.11458
rtoes -15.6123
lfemur 3.87644 13.2067 -12.4844
ltibia 29.7231
lfoot -29.9488 -15.1998
ltoes -6.89837
51
root 1.93755 16.7923 -18.3561 -9.2303 -1.13037 -3.69239
lowerback 11.9466 -1.88031 -1.38291
upperback 3.54346 -2.57451 2.33306
thorax -2.81097 -1.28876 3.5731
lowerneck -19.3627 -1.69076 -7.41774
upperneck 20.1686 -2.09402 8.19986
head 9.75368 -0.600398 3.82946
rclavicle 2.66558e-014 -2.16675e-014
rhumerus -41.2615 13.5823 -87.698
rradius 38.0062
rwrist 32.706
rhand -29.3576 -9.87028
rfingers 7.12502
rthumb -2.69711 -39.833
lclavicle 2.66558e-014 -2.16675e-014
lhumerus -20.0302 -20.6827 96.7936
lradius 47.1994
lwrist -14.1508
lhand -47.5985 8.67781
lfingers 7.12502
lthumb -20.2826 37.6388
rfemur -8.90417 -13.9696 15.1278
rtibia 60.611
rfoot -17.1609 1.79721
rtoes -16.0576
lfemur 4.81929 12.8652 -12.2075
ltibia 28.9469
lfoot -30.1045 -15.4738
ltoes -7.31153
52
root 1.94495 16.7968 -18.1777 -9.24867 -0.641689 -3.59652
lowerback 11.9846 -2.15514 -2.00419
upperback 3.48767 -3.00648 2.50947
thorax -2.81581 -1.50375 4.17139
lowerneck -19.2943 -1.49519 -7.42985
upperneck 20.2055 -1.78046 8.02193
head 9.72377 -0.477907 3.81154
rclavicle -4.75095e-014 1.5704e-014
rhumerus -42.2472 11.2692 -85.5855
rradius 36.0491
rwrist 34.1366
rhand -29.0958 -9.94984
rfingers 7.12502
rthumb -2.44419 -39.9156
lclavicle -4.75095e-014 1.5704e-014
lhumerus -18.6244 -21.0418 96.4378
lradius 49.2904
lwrist -14.3764
lhand -47.884 8.49465
lfingers 7.12502
lthumb -20.557 37.4262
rfemur -10.2999 -14.2761 15.6263
rtibia 59.3416
rfoot -17.7648 1.65967
rtoes -16.1167
lfemur 5.92166 12.7165 -12.1946
ltibia 28.0222
lfoot -30.179 -15.9778
ltoes -6.90382
53
root 1.95254 16.7997 -18.0049 -9.21161 -0.348718 -3.91153
lowerback 12.053 -2.37135 -2.00966
upperback 3.38768 -3.2838 2.78306
thorax -2.91664 -1.63944 4.50674
lowerneck -19.0397 -1.43435 -7.80014
upperneck 20.1094 -1.61431 8.09545
head 9.63129 -0.425828 3.91835
rclavicle 4.77953e-014 -3.02153e-014
rhumerus -43.3222 8.94221 -83.2398
rradius 34.2176
rwrist 35.1133
rhand -29.1026 -10.2204
rfingers 7.12502
rthumb -2.4508 -40.1861
lclavicle 4.77953e-014 -3.02153e-014
lhumerus -17.351 -21.5087 96.1885
lradius 51.4814
lwrist -14.5332
lhand -48.1383 8.45351
lfingers 7.12502
lthumb -20.8013 37.3585
rfemur -11.7274 -14.4286 16.6915
rtibia 57.8521
rfoot -18.2877 1.30726
rtoes -16.2764
lfemur 6.99069 12.7607 -11.6663
ltibia 26.9854
lfoot -30.1847 -16.5679
ltoes -6.82255
54
root 1.95984 16.8077 -17.8161 -9.24575 0.0549284 -3.61054
lowerback 12.0259 -2.56138 -2.6128
upperback 3.36018 -3.60699 2.82926
thorax -2.85903 -1.80117 4.9392
lowerneck -18.9586 -1.32542 -7.69175
upperneck 20.0816 -1.42306 7.77793
head 9.5862 -0.36613 3.81098
rclavicle -2.72335e-014 -3.598e-014
rhumerus -44.2917 6.14553 -80.3685
rradius 32.2374
rwrist 38.0106
rhand -29.1171 -10.3875
rfingers 7.12502
rthumb -2.46478 -40.353
lclavicle -2.72335e-014 -3.598e-014
lhumerus -15.9414 -22.0355 95.7411
lradius 53.3486
lwrist -14.8524
lhand -48.4461 8.47618
lfingers 7.12502
lthumb -21.097 37.3485
rfemur -12.9075 -14.697 16.8939
rtibia 56.1958
rfoot -18.8935 1.31595
rtoes -15.6339
lfemur 8.27134 12.5541 -11.9053
ltibia 25.8043
lfoot -30.1845 -16.8812
ltoes -6.77404
55
root 1.96187 16.8129 -17.637 -9.23004 0.521524 -3.47044
lowerback 12.0557 -2.74901 -3.10079
upperback 3.29065 -3.91182 2.92552
thorax -2.87528 -1.95143 5.36183
lowerneck -18.7898 -1.25493 -7.92296
upperneck 20.0375 -1.28671 7.86373
head 9.52916 -0.313727 3.89612
rclavicle 1.77043e-014 -2.78299e-014
rhumerus -45.6115 4.21953 -77.9302
rradius 30.9294
rwrist 38.5147
rhand -29.1068 -10.8844
rfingers 7.12502
rthumb -2.45481 -40.85
lclavicle 1.77043e-014 -2.78299e-014
lhumerus -14.7305 -22.7511 95.3846
lradius 55.6115
lwrist -14.4435
lhand -48.535 8.42013
lfingers 7.12502
lthumb -21.1824 37.2829
rfemur -14.0579 -14.8978 17.3679
rtibia 54.3464
rfoot -19.2603 1.24498
rtoes -15.7149
lfemur 9.49337 12.3425 -11.9338
ltibia 24.5068
lfoot -30.0807 -17.2727
ltoes -6.83206
56
root 1.96951 16.8216 -17.4565 -9.09464 0.849201 -3.46796
lowerback 11.9467 -2.94275 -3.26504
upperback 3.23017 -4.18419 3.00188
thorax -2.82986 -2.08772 5.56536
lowerneck -18.6958 -1.1415 -7.9035
upperneck 19.9931 -1.11251 7.75128
head 9.47978 -0.245271 3.8738
rclavicle -4.80438e-014 -1.23246e-014
rhumerus -46.7101 1.67932 -75.0438
rradius 29.5007
rwrist 40.0037
rhand -29.0837 -11.4047
rfingers 7.12502
rthumb -2.43252 -41.3706
lclavicle -4.80438e-014 -1.23246e-014
lhumerus -13.3338 -23.2214 94.9196
lradius 57.3157
lwrist -14.6928
lhand -49.0356 8.38506
lfingers 7.12502
lthumb -21.6632 37.1931
rfemur -15.325 -15.035 18.0207
rtibia 52.362
rfoot -19.5932 1.34665
rtoes -15.5038
lfemur 10.6587 12.2769 -11.8008
ltibia 23.0339
lfoot -29.8056 -17.733
ltoes -6.93086
57
root 1.96405 16.8259 -17.2671 -9.0987 1.19314 -3.52114
lowerback 11.796 -3.11087 -3.60665
upperback 3.25118 -4.44192 3.12565
thorax -2.65743 -2.22306 5.90933
lowerneck -18.5853 -1.05638 -7.85465
upperneck 19.9323 -0.986944 7.63754
head 9.42624 -0.197374 3.83889
rclavicle 7.19476e-014 -4.77083e-015
rhumerus -47.9119 -0.433968 -72.1106
rradius 28.2846
rwrist 40.6413
rhand -28.7748 -11.2748
rfingers 7.12502
rthumb -2.13419 -41.2439
lclavicle 7.19476e-014 -4.77083e-015
lhumerus -11.9376 -23.8055 94.3402
lradius 59.1018
lwrist -14.4373
lhand -48.9123 8.23872
lfingers 7.12502
lthumb -21.5448 37.0604
rfemur -16.266 -15.1408 18.7223
rtibia 50.2406
rfoot -19.884 1.51862
rtoes -15.3984
lfemur 12.0894 12.2043 -11.4796
ltibia 21.4592
lfoot -29.5336 -18.3525
ltoes -6.87948
58
root 1.97092 16.829 -17.0773 -9.02554 1.34326 -3.42102
lowerback 11.6081 -3.24194 -3.89865
upperback 3.2485 -4.64388 3.21921
thorax -2.49939 -2.33022 6.18314
lowerneck -18.3594 -0.963785 -8.01994
upperneck 19.7611 -0.816566 7.62554
head 9.31052 -0.134482 3.87761
rclavicle 7.0991e-014 -2.82274e-014
rhumerus -49.1318 -2.45897 -68.8998
rradius 27.0455
rwrist 42.8385
rhand -28.8936 -11.9334
rfingers 7.12502
rthumb -2.24892 -41.9013
lclavicle 7.0991e-014 -2.82274e-014
lhumerus -10.6113 -23.9307 93.8879
lradius 60.6397
lwrist -14.9397
lhand -49.2024 8.18556
lfingers 7.12502
lthumb -21.8234 36.975
rfemur -17.2383 -15.1302 19.2031
rtibia 48.0543
rfoot -20.0868 2.0036
rtoes -16.0586
lfemur 13.488 12.4823 -11.258
ltibia 19.7929
lfoot -28.996 -19.3883
ltoes -6.10809
